<svg width="1920" height="1080" viewBox="0 0 1920 1080" fill="none" xmlns="http://www.w3.org/2000/svg">
<g filter="url(#filter0_d)">
<circle cx="712.005" cy="318.58" r="29.2984" fill="white"/>
<path d="M711.97 309.344C710.854 309.344 709.911 309.093 709.142 308.59C708.398 308.062 708.026 307.321 708.026 306.366C708.026 305.335 708.398 304.581 709.142 304.103C709.911 303.626 710.854 303.387 711.97 303.387C713.036 303.387 713.966 303.626 714.76 304.103C715.554 304.581 715.95 305.335 715.95 306.366C715.95 307.321 715.554 308.062 714.76 308.59C713.966 309.093 713.036 309.344 711.97 309.344ZM705.757 332.685V330.385H706.203C706.922 330.385 707.493 330.184 707.914 329.782C708.336 329.379 708.547 328.65 708.547 327.595V317.263C708.547 316.333 708.324 315.692 707.877 315.34C707.431 314.963 706.873 314.774 706.203 314.774H705.496V312.474H715.764V327.745C715.764 328.751 715.975 329.442 716.397 329.819C716.843 330.196 717.414 330.385 718.108 330.385H718.518V332.685H705.757Z" fill="#1F5C9D"/>
</g>
<g filter="url(#filter1_d)">
<circle cx="1011.3" cy="659.298" r="29.2984" fill="white"/>
<path d="M1011.26 650.063C1010.15 650.063 1009.2 649.812 1008.44 649.309C1007.69 648.781 1007.32 648.04 1007.32 647.084C1007.32 646.054 1007.69 645.3 1008.44 644.822C1009.2 644.344 1010.15 644.105 1011.26 644.105C1012.33 644.105 1013.26 644.344 1014.05 644.822C1014.85 645.3 1015.24 646.054 1015.24 647.084C1015.24 648.04 1014.85 648.781 1014.05 649.309C1013.26 649.812 1012.33 650.063 1011.26 650.063ZM1005.05 673.404V671.104H1005.5C1006.22 671.104 1006.79 670.903 1007.21 670.5C1007.63 670.098 1007.84 669.369 1007.84 668.313V657.982C1007.84 657.052 1007.62 656.411 1007.17 656.059C1006.72 655.682 1006.17 655.493 1005.5 655.493H1004.79V653.193H1015.06V668.464C1015.06 669.47 1015.27 670.161 1015.69 670.538C1016.14 670.915 1016.71 671.104 1017.4 671.104H1017.81V673.404H1005.05Z" fill="#1F5C9D"/>
</g>
<g filter="url(#filter2_d)">
<circle cx="1150.36" cy="611.564" r="29.2984" fill="white"/>
<path d="M1150.32 602.329C1149.2 602.329 1148.26 602.077 1147.49 601.575C1146.75 601.047 1146.37 600.305 1146.37 599.35C1146.37 598.319 1146.75 597.565 1147.49 597.088C1148.26 596.61 1149.2 596.371 1150.32 596.371C1151.38 596.371 1152.31 596.61 1153.11 597.088C1153.9 597.565 1154.3 598.319 1154.3 599.35C1154.3 600.305 1153.9 601.047 1153.11 601.575C1152.31 602.077 1151.38 602.329 1150.32 602.329ZM1144.1 625.669V623.369H1144.55C1145.27 623.369 1145.84 623.168 1146.26 622.766C1146.68 622.364 1146.89 621.635 1146.89 620.579V610.247C1146.89 609.317 1146.67 608.676 1146.22 608.324C1145.78 607.947 1145.22 607.759 1144.55 607.759H1143.84V605.458H1154.11V620.73C1154.11 621.735 1154.32 622.427 1154.74 622.804C1155.19 623.181 1155.76 623.369 1156.46 623.369H1156.87V625.669H1144.1Z" fill="#1F5C9D"/>
</g>
<g filter="url(#filter3_d)">
<circle cx="1513.2" cy="913.562" r="29.2984" fill="white"/>
<path d="M1513.16 904.327C1512.05 904.327 1511.11 904.075 1510.34 903.573C1509.59 903.045 1509.22 902.303 1509.22 901.348C1509.22 900.317 1509.59 899.563 1510.34 899.086C1511.11 898.608 1512.05 898.369 1513.16 898.369C1514.23 898.369 1515.16 898.608 1515.96 899.086C1516.75 899.563 1517.15 900.317 1517.15 901.348C1517.15 902.303 1516.75 903.045 1515.96 903.573C1515.16 904.075 1514.23 904.327 1513.16 904.327ZM1506.95 927.668V925.367H1507.4C1508.12 925.367 1508.69 925.166 1509.11 924.764C1509.53 924.362 1509.74 923.633 1509.74 922.577V912.245C1509.74 911.315 1509.52 910.674 1509.07 910.322C1508.63 909.945 1508.07 909.757 1507.4 909.757H1506.69V907.457H1516.96V922.728C1516.96 923.733 1517.17 924.425 1517.59 924.802C1518.04 925.179 1518.61 925.367 1519.3 925.367H1519.71V927.668H1506.95Z" fill="#1F5C9D"/>
</g>
<g filter="url(#filter4_d)">
<circle cx="1329.3" cy="927.298" r="29.2984" fill="white"/>
<path d="M1329.26 918.063C1328.15 918.063 1327.2 917.812 1326.44 917.309C1325.69 916.781 1325.32 916.04 1325.32 915.084C1325.32 914.054 1325.69 913.3 1326.44 912.822C1327.2 912.344 1328.15 912.105 1329.26 912.105C1330.33 912.105 1331.26 912.344 1332.05 912.822C1332.85 913.3 1333.24 914.054 1333.24 915.084C1333.24 916.04 1332.85 916.781 1332.05 917.309C1331.26 917.812 1330.33 918.063 1329.26 918.063ZM1323.05 941.404V939.104H1323.5C1324.22 939.104 1324.79 938.903 1325.21 938.5C1325.63 938.098 1325.84 937.369 1325.84 936.313V925.982C1325.84 925.052 1325.62 924.411 1325.17 924.059C1324.72 923.682 1324.17 923.493 1323.5 923.493H1322.79V921.193H1333.06V936.464C1333.06 937.47 1333.27 938.161 1333.69 938.538C1334.14 938.915 1334.71 939.104 1335.4 939.104H1335.81V941.404H1323.05Z" fill="#1F5C9D"/>
</g>
<g filter="url(#filter5_d)">
<circle cx="1322.76" cy="712.981" r="29.2984" fill="white"/>
<path d="M1322.73 703.746C1321.61 703.746 1320.67 703.494 1319.9 702.992C1319.16 702.464 1318.78 701.722 1318.78 700.767C1318.78 699.736 1319.16 698.982 1319.9 698.505C1320.67 698.027 1321.61 697.788 1322.73 697.788C1323.79 697.788 1324.72 698.027 1325.52 698.505C1326.31 698.982 1326.71 699.736 1326.71 700.767C1326.71 701.722 1326.31 702.464 1325.52 702.992C1324.72 703.494 1323.79 703.746 1322.73 703.746ZM1316.51 727.086V724.786H1316.96C1317.68 724.786 1318.25 724.585 1318.67 724.183C1319.09 723.781 1319.3 723.052 1319.3 721.996V711.664C1319.3 710.734 1319.08 710.093 1318.63 709.741C1318.19 709.364 1317.63 709.176 1316.96 709.176H1316.25V706.875H1326.52V722.147C1326.52 723.152 1326.73 723.844 1327.15 724.221C1327.6 724.598 1328.17 724.786 1328.87 724.786H1329.28V727.086H1316.51Z" fill="#1F5C9D"/>
</g>
<g filter="url(#filter6_d)">
<circle cx="1047.81" cy="834.682" r="29.2984" fill="white"/>
<path d="M1047.77 825.447C1046.66 825.447 1045.72 825.196 1044.95 824.693C1044.2 824.165 1043.83 823.423 1043.83 822.468C1043.83 821.437 1044.2 820.683 1044.95 820.206C1045.72 819.728 1046.66 819.489 1047.77 819.489C1048.84 819.489 1049.77 819.728 1050.56 820.206C1051.36 820.683 1051.76 821.437 1051.76 822.468C1051.76 823.423 1051.36 824.165 1050.56 824.693C1049.77 825.196 1048.84 825.447 1047.77 825.447ZM1041.56 848.788V846.487H1042.01C1042.73 846.487 1043.3 846.286 1043.72 845.884C1044.14 845.482 1044.35 844.753 1044.35 843.697V833.365C1044.35 832.435 1044.13 831.794 1043.68 831.442C1043.24 831.065 1042.68 830.877 1042.01 830.877H1041.3V828.577H1051.57V843.848C1051.57 844.854 1051.78 845.545 1052.2 845.922C1052.65 846.299 1053.22 846.487 1053.91 846.487H1054.32V848.788H1041.56Z" fill="#1F5C9D"/>
</g>
<g filter="url(#filter7_d)">
<circle cx="615.095" cy="582.265" r="29.2984" fill="white"/>
<path d="M615.059 573.03C613.943 573.03 613.001 572.779 612.232 572.276C611.488 571.748 611.116 571.006 611.116 570.051C611.116 569.02 611.488 568.266 612.232 567.789C613.001 567.311 613.943 567.072 615.059 567.072C616.126 567.072 617.056 567.311 617.85 567.789C618.643 568.266 619.04 569.02 619.04 570.051C619.04 571.006 618.643 571.748 617.85 572.276C617.056 572.779 616.126 573.03 615.059 573.03ZM608.846 596.371V594.071H609.293C610.012 594.071 610.583 593.869 611.004 593.467C611.426 593.065 611.637 592.336 611.637 591.28V580.948C611.637 580.018 611.413 579.377 610.967 579.025C610.521 578.648 609.962 578.46 609.293 578.46H608.586V576.16H618.854V591.431C618.854 592.437 619.065 593.128 619.487 593.505C619.933 593.882 620.504 594.071 621.198 594.071H621.607V596.371H608.846Z" fill="#1F5C9D"/>
</g>
<defs>
<filter id="filter0_d" x="662.707" y="269.281" width="108.597" height="108.597" filterUnits="userSpaceOnUse" color-interpolation-filters="sRGB">
<feFlood flood-opacity="0" result="BackgroundImageFix"/>
<feColorMatrix in="SourceAlpha" type="matrix" values="0 0 0 0 0 0 0 0 0 0 0 0 0 0 0 0 0 0 127 0"/>
<feOffset dx="5" dy="5"/>
<feGaussianBlur stdDeviation="12.5"/>
<feColorMatrix type="matrix" values="0 0 0 0 0 0 0 0 0 0 0 0 0 0 0 0 0 0 0.15 0"/>
<feBlend mode="normal" in2="BackgroundImageFix" result="effect1_dropShadow"/>
<feBlend mode="normal" in="SourceGraphic" in2="effect1_dropShadow" result="shape"/>
</filter>
<filter id="filter1_d" x="962" y="610" width="108.597" height="108.597" filterUnits="userSpaceOnUse" color-interpolation-filters="sRGB">
<feFlood flood-opacity="0" result="BackgroundImageFix"/>
<feColorMatrix in="SourceAlpha" type="matrix" values="0 0 0 0 0 0 0 0 0 0 0 0 0 0 0 0 0 0 127 0"/>
<feOffset dx="5" dy="5"/>
<feGaussianBlur stdDeviation="12.5"/>
<feColorMatrix type="matrix" values="0 0 0 0 0 0 0 0 0 0 0 0 0 0 0 0 0 0 0.15 0"/>
<feBlend mode="normal" in2="BackgroundImageFix" result="effect1_dropShadow"/>
<feBlend mode="normal" in="SourceGraphic" in2="effect1_dropShadow" result="shape"/>
</filter>
<filter id="filter2_d" x="1101.06" y="562.266" width="108.597" height="108.597" filterUnits="userSpaceOnUse" color-interpolation-filters="sRGB">
<feFlood flood-opacity="0" result="BackgroundImageFix"/>
<feColorMatrix in="SourceAlpha" type="matrix" values="0 0 0 0 0 0 0 0 0 0 0 0 0 0 0 0 0 0 127 0"/>
<feOffset dx="5" dy="5"/>
<feGaussianBlur stdDeviation="12.5"/>
<feColorMatrix type="matrix" values="0 0 0 0 0 0 0 0 0 0 0 0 0 0 0 0 0 0 0.15 0"/>
<feBlend mode="normal" in2="BackgroundImageFix" result="effect1_dropShadow"/>
<feBlend mode="normal" in="SourceGraphic" in2="effect1_dropShadow" result="shape"/>
</filter>
<filter id="filter3_d" x="1463.9" y="864.264" width="108.597" height="108.597" filterUnits="userSpaceOnUse" color-interpolation-filters="sRGB">
<feFlood flood-opacity="0" result="BackgroundImageFix"/>
<feColorMatrix in="SourceAlpha" type="matrix" values="0 0 0 0 0 0 0 0 0 0 0 0 0 0 0 0 0 0 127 0"/>
<feOffset dx="5" dy="5"/>
<feGaussianBlur stdDeviation="12.5"/>
<feColorMatrix type="matrix" values="0 0 0 0 0 0 0 0 0 0 0 0 0 0 0 0 0 0 0.15 0"/>
<feBlend mode="normal" in2="BackgroundImageFix" result="effect1_dropShadow"/>
<feBlend mode="normal" in="SourceGraphic" in2="effect1_dropShadow" result="shape"/>
</filter>
<filter id="filter4_d" x="1280" y="878" width="108.597" height="108.597" filterUnits="userSpaceOnUse" color-interpolation-filters="sRGB">
<feFlood flood-opacity="0" result="BackgroundImageFix"/>
<feColorMatrix in="SourceAlpha" type="matrix" values="0 0 0 0 0 0 0 0 0 0 0 0 0 0 0 0 0 0 127 0"/>
<feOffset dx="5" dy="5"/>
<feGaussianBlur stdDeviation="12.5"/>
<feColorMatrix type="matrix" values="0 0 0 0 0 0 0 0 0 0 0 0 0 0 0 0 0 0 0.15 0"/>
<feBlend mode="normal" in2="BackgroundImageFix" result="effect1_dropShadow"/>
<feBlend mode="normal" in="SourceGraphic" in2="effect1_dropShadow" result="shape"/>
</filter>
<filter id="filter5_d" x="1273.46" y="663.683" width="108.597" height="108.597" filterUnits="userSpaceOnUse" color-interpolation-filters="sRGB">
<feFlood flood-opacity="0" result="BackgroundImageFix"/>
<feColorMatrix in="SourceAlpha" type="matrix" values="0 0 0 0 0 0 0 0 0 0 0 0 0 0 0 0 0 0 127 0"/>
<feOffset dx="5" dy="5"/>
<feGaussianBlur stdDeviation="12.5"/>
<feColorMatrix type="matrix" values="0 0 0 0 0 0 0 0 0 0 0 0 0 0 0 0 0 0 0.15 0"/>
<feBlend mode="normal" in2="BackgroundImageFix" result="effect1_dropShadow"/>
<feBlend mode="normal" in="SourceGraphic" in2="effect1_dropShadow" result="shape"/>
</filter>
<filter id="filter6_d" x="998.512" y="785.384" width="108.597" height="108.597" filterUnits="userSpaceOnUse" color-interpolation-filters="sRGB">
<feFlood flood-opacity="0" result="BackgroundImageFix"/>
<feColorMatrix in="SourceAlpha" type="matrix" values="0 0 0 0 0 0 0 0 0 0 0 0 0 0 0 0 0 0 127 0"/>
<feOffset dx="5" dy="5"/>
<feGaussianBlur stdDeviation="12.5"/>
<feColorMatrix type="matrix" values="0 0 0 0 0 0 0 0 0 0 0 0 0 0 0 0 0 0 0.15 0"/>
<feBlend mode="normal" in2="BackgroundImageFix" result="effect1_dropShadow"/>
<feBlend mode="normal" in="SourceGraphic" in2="effect1_dropShadow" result="shape"/>
</filter>
<filter id="filter7_d" x="565.797" y="532.967" width="108.597" height="108.597" filterUnits="userSpaceOnUse" color-interpolation-filters="sRGB">
<feFlood flood-opacity="0" result="BackgroundImageFix"/>
<feColorMatrix in="SourceAlpha" type="matrix" values="0 0 0 0 0 0 0 0 0 0 0 0 0 0 0 0 0 0 127 0"/>
<feOffset dx="5" dy="5"/>
<feGaussianBlur stdDeviation="12.5"/>
<feColorMatrix type="matrix" values="0 0 0 0 0 0 0 0 0 0 0 0 0 0 0 0 0 0 0.15 0"/>
<feBlend mode="normal" in2="BackgroundImageFix" result="effect1_dropShadow"/>
<feBlend mode="normal" in="SourceGraphic" in2="effect1_dropShadow" result="shape"/>
</filter>
</defs>
</svg>
